<svg width="1920" height="470" viewBox="0 0 1920 470" fill="none" xmlns="http://www.w3.org/2000/svg">
<path d="M1672 72C1683.5 73.5 1686 86.5 1686 95.5C1686 96.5172 1687.65 97.1126 1688.37 96.3919C1692.15 92.59 1696.91 91.6392 1701.5 92.5C1707.2 93.3767 1710.59 99.2511 1711.34 106.752C1711.47 108 1712.48 109 1713.74 109C1714.74 109 1715.62 108.348 1715.99 107.418C1720.29 96.6983 1729.81 94.1246 1735.5 95C1736.4 95.2084 1737.23 95.4747 1737.98 95.8029C1745.96 99.2804 1751.44 109 1760.14 109H1763C1763.42 109 1763.83 109.005 1764.25 109.002C1768.79 108.965 1770.5 112.51 1770.87 116.386C1771.26 120.334 1768.57 123.647 1764.62 124.03C1760.41 124.437 1753.89 124.346 1744.42 123H1640C1636.13 123 1633 119.866 1633 116C1633 112.134 1636.13 109 1640 109C1645.98 109 1650.22 102.786 1650.02 96.8055C1650.01 96.373 1650 95.9377 1650 95.5C1650 80.8645 1662.06 72 1672 72Z" fill="#FCFCED"/>
<path d="M90.9502 132C99.7816 133.152 101.702 143.135 101.702 150.047C101.702 150.828 102.968 151.285 103.52 150.732C106.427 147.812 110.08 147.082 113.605 147.743C117.982 148.416 120.587 152.928 121.162 158.688C121.258 159.647 122.039 160.415 123.003 160.415C123.773 160.415 124.449 159.914 124.735 159.2C128.035 150.968 135.347 148.991 139.717 149.663C147.312 151.416 152.848 160.415 160.642 160.415H160.836C161.156 160.415 161.478 160.419 161.799 160.416C164.72 160.394 166.114 162.304 166.658 164.676C167.546 168.542 164.619 171.852 160.658 172.062C157.442 172.233 152.848 172.059 146.564 171.166H66.376C63.4072 171.166 61.0002 168.76 61 165.791C61 162.822 63.407 160.415 66.376 160.415C70.9717 160.415 74.2238 155.643 74.0722 151.05C74.0612 150.718 74.0557 150.383 74.0557 150.047C74.0559 138.808 83.3159 132 90.9502 132Z" fill="#FCFCED"/>
<path d="M-34.0498 328C-25.2184 329.152 -23.2979 339.135 -23.2979 346.047C-23.2979 346.828 -22.0318 347.285 -21.4805 346.732C-18.5727 343.812 -14.9203 343.082 -11.3945 343.743C-7.01775 344.416 -4.41337 348.928 -3.838 354.688C-3.74221 355.647 -2.9609 356.415 -1.99713 356.415C-1.22735 356.415 -0.551247 355.914 -0.264851 355.2C3.0347 346.968 10.3467 344.991 14.7168 345.663C22.3119 347.416 27.8475 356.415 35.6423 356.415H35.8359C36.1561 356.415 36.4784 356.419 36.7986 356.416C39.7198 356.394 41.114 358.304 41.6585 360.676C42.5457 364.542 39.619 367.852 35.6585 368.062C32.4418 368.233 27.8481 368.059 21.5645 367.166H-58.624C-61.5928 367.166 -63.9998 364.76 -64 361.791C-64 358.822 -61.593 356.415 -58.624 356.415C-54.0283 356.415 -50.7762 351.643 -50.9278 347.05C-50.9388 346.718 -50.9443 346.383 -50.9443 346.047C-50.9441 334.808 -41.6841 328 -34.0498 328Z" fill="#FCFCED"/>
<path d="M229.95 429C238.782 430.152 240.702 440.135 240.702 447.047C240.702 447.828 241.968 448.285 242.52 447.732C245.427 444.812 249.08 444.082 252.605 444.743C256.982 445.416 259.587 449.928 260.162 455.688C260.258 456.647 261.039 457.415 262.003 457.415C262.773 457.415 263.449 456.914 263.735 456.2C267.035 447.968 274.347 445.991 278.717 446.663C286.312 448.416 291.848 457.415 299.642 457.415H299.836C300.156 457.415 300.478 457.419 300.799 457.416C303.72 457.394 305.114 459.304 305.658 461.676C306.546 465.542 303.619 468.852 299.658 469.062C296.442 469.233 291.848 469.059 285.564 468.166H205.376C202.407 468.166 200 465.76 200 462.791C200 459.822 202.407 457.415 205.376 457.415C209.972 457.415 213.224 452.643 213.072 448.05C213.061 447.718 213.056 447.383 213.056 447.047C213.056 435.808 222.316 429 229.95 429Z" fill="#FCFCED"/>
<path d="M1277.16 0C1283.1 0.775422 1284.39 7.49426 1284.39 12.1455C1284.39 12.6714 1285.24 12.9792 1285.61 12.6066C1287.57 10.6414 1290.03 10.1498 1292.4 10.5947C1295.35 11.0478 1297.1 14.0836 1297.49 17.9601C1297.55 18.6053 1298.08 19.1221 1298.73 19.1221C1299.24 19.1221 1299.7 18.785 1299.89 18.3043C1302.11 12.7646 1307.03 11.4343 1309.97 11.8867C1315.08 13.0665 1318.81 19.1221 1324.06 19.1221H1324.19C1324.4 19.1221 1324.62 19.1246 1324.83 19.1229C1325.95 19.1136 1326.73 19.5245 1327.27 20.174C1329.8 23.2295 1326.02 27.0458 1322.05 26.9975C1320.1 26.9738 1317.64 26.7922 1314.58 26.3574H1260.62C1258.62 26.3574 1257 24.7381 1257 22.7402C1257 20.7422 1258.62 19.1221 1260.62 19.1221C1263.71 19.1221 1265.9 15.9105 1265.8 12.8189C1265.79 12.5958 1265.79 12.3713 1265.79 12.1455C1265.79 4.58165 1272.02 0 1277.16 0Z" fill="#FCFCED"/>
<path d="M425.95 44C434.782 45.1519 436.702 55.1352 436.702 62.0469C436.702 62.828 437.968 63.2853 438.52 62.7318C441.427 59.8123 445.08 59.0822 448.605 59.7432C452.982 60.4165 455.587 64.9278 456.162 70.688C456.258 71.647 457.039 72.415 458.003 72.415C458.773 72.415 459.449 71.9141 459.735 71.1996C463.035 62.9676 470.347 60.9908 474.717 61.6631C482.312 63.4161 487.848 72.415 495.642 72.415H495.836C496.156 72.4151 496.478 72.4186 496.799 72.4161C499.72 72.3937 501.114 74.3041 501.658 76.6764C502.546 80.542 499.619 83.8524 495.658 84.0624C492.442 84.233 487.848 84.0588 481.564 83.166H401.376C398.407 83.166 396 80.7598 396 77.791C396 74.8221 398.407 72.415 401.376 72.415C405.972 72.415 409.224 67.6432 409.072 63.0499C409.061 62.7176 409.056 62.3832 409.056 62.0469C409.056 50.8078 418.316 44.0003 425.95 44Z" fill="#FCFCED"/>
<path d="M820.95 124C829.782 125.152 831.702 135.135 831.702 142.047C831.702 142.828 832.968 143.285 833.52 142.732C836.427 139.812 840.08 139.082 843.605 139.743C847.982 140.416 850.587 144.928 851.162 150.688C851.258 151.647 852.039 152.415 853.003 152.415C853.773 152.415 854.449 151.914 854.735 151.2C858.035 142.968 865.347 140.991 869.717 141.663C877.312 143.416 882.848 152.415 890.642 152.415H890.836C891.156 152.415 891.478 152.419 891.799 152.416C894.72 152.394 896.114 154.304 896.658 156.676C897.546 160.542 894.619 163.852 890.658 164.062C887.442 164.233 882.848 164.059 876.564 163.166H796.376C793.407 163.166 791 160.76 791 157.791C791 154.822 793.407 152.415 796.376 152.415C800.972 152.415 804.224 147.643 804.072 143.05C804.061 142.718 804.056 142.383 804.056 142.047C804.056 130.808 813.316 124 820.95 124Z" fill="#FCFCED"/>
<path d="M1544.16 276C1550.1 276.775 1551.39 283.494 1551.39 288.146C1551.39 288.671 1552.24 288.979 1552.61 288.607C1554.57 286.641 1557.03 286.15 1559.4 286.595C1562.35 287.048 1564.1 290.084 1564.49 293.96C1564.55 294.605 1565.08 295.122 1565.73 295.122C1566.24 295.122 1566.7 294.785 1566.89 294.304C1569.11 288.765 1574.03 287.434 1576.97 287.887C1582.08 289.066 1585.81 295.122 1591.06 295.122H1591.19C1591.4 295.122 1591.62 295.125 1591.83 295.123C1592.95 295.114 1593.73 295.525 1594.27 296.174C1596.8 299.23 1593.02 303.046 1589.05 302.998C1587.1 302.974 1584.64 302.792 1581.58 302.357H1527.62C1525.62 302.357 1524 300.738 1524 298.74C1524 296.742 1525.62 295.122 1527.62 295.122C1530.71 295.122 1532.9 291.91 1532.8 288.819C1532.79 288.596 1532.79 288.371 1532.79 288.146C1532.79 280.582 1539.02 276 1544.16 276Z" fill="#FCFCED"/>
<path d="M1885.95 328C1894.78 329.152 1896.7 339.135 1896.7 346.047C1896.7 346.828 1897.97 347.285 1898.52 346.732C1901.43 343.812 1905.08 343.082 1908.61 343.743C1912.98 344.416 1915.59 348.928 1916.16 354.688C1916.26 355.647 1917.04 356.415 1918 356.415C1918.77 356.415 1919.45 355.914 1919.74 355.2C1923.03 346.968 1930.35 344.991 1934.72 345.663C1942.31 347.416 1947.85 356.415 1955.64 356.415H1955.84C1956.16 356.415 1956.48 356.419 1956.8 356.416C1959.72 356.394 1961.11 358.304 1961.66 360.676C1962.55 364.542 1959.62 367.852 1955.66 368.062C1952.44 368.233 1947.85 368.059 1941.56 367.166H1861.38C1858.41 367.166 1856 364.76 1856 361.791C1856 358.822 1858.41 356.415 1861.38 356.415C1865.97 356.415 1869.22 351.643 1869.07 347.05C1869.06 346.718 1869.06 346.383 1869.06 346.047C1869.06 334.808 1878.32 328 1885.95 328Z" fill="#FCFCED"/>
</svg>
